<svg width="6" height="22" viewBox="0 0 6 22" fill="none" xmlns="http://www.w3.org/2000/svg">
<path fill-rule="evenodd" clip-rule="evenodd" d="M0.832031 3.02761C0.832031 1.72361 1.88914 0.666504 3.19314 0.666504C4.49715 0.666504 5.55425 1.72361 5.55425 3.02761C5.55425 4.33162 4.49715 5.38873 3.19314 5.38873C1.88914 5.38873 0.832031 4.33162 0.832031 3.02761ZM0.832031 11.1943C0.832031 9.89027 1.88914 8.83317 3.19314 8.83317C4.49715 8.83317 5.55425 9.89027 5.55425 11.1943C5.55425 12.4983 4.49715 13.5554 3.19314 13.5554C1.88914 13.5554 0.832031 12.4983 0.832031 11.1943ZM0.832031 19.3609C0.832031 18.0569 1.88914 16.9998 3.19314 16.9998C4.49715 16.9998 5.55425 18.0569 5.55425 19.3609C5.55425 20.665 4.49715 21.7221 3.19314 21.7221C1.88914 21.7221 0.832031 20.665 0.832031 19.3609Z" fill="#10A5FF"/>
</svg>
