<svg width="20" height="20" viewBox="0 0 20 20" fill="none" xmlns="http://www.w3.org/2000/svg">
<path fill-rule="evenodd" clip-rule="evenodd" d="M17.7088 2.12002C17.2207 1.63187 16.4292 1.63187 15.9411 2.12002L14.5604 3.50067L16.3282 5.26844L17.7088 3.88779C18.197 3.39963 18.197 2.60818 17.7088 2.12002ZM18.7695 4.94845C19.8434 3.87451 19.8434 2.1333 18.7695 1.05936C17.6956 -0.0145809 15.9544 -0.0145774 14.8804 1.05936L12.9697 2.9701L3.17393 12.7658C2.38992 13.5497 1.9221 14.0175 1.55684 14.5603C1.23305 15.0414 0.972617 15.5623 0.781976 16.11C0.566922 16.7279 0.473408 17.3828 0.316691 18.4803L0.257547 18.8944C0.223092 19.1355 0.307933 19.3784 0.48506 19.5457C0.662187 19.713 0.909528 19.7838 1.14834 19.7356L1.70961 19.6224C2.69578 19.4235 3.28433 19.3047 3.83868 19.0865C4.33025 18.8931 4.79741 18.6425 5.23055 18.3401C5.71902 17.9991 6.14353 17.5745 6.85486 16.8631L18.7695 4.94845ZM15.2675 6.3291L13.4998 4.56133L4.29308 13.768C3.43338 14.6277 3.07575 14.9899 2.80129 15.3977C2.54945 15.772 2.34689 16.1771 2.19862 16.6031C2.07377 16.9618 2.00052 17.3438 1.89437 18.054C2.59205 17.9102 2.95228 17.8234 3.28929 17.6908C3.67162 17.5403 4.03496 17.3454 4.37186 17.1102C4.73894 16.8539 5.06728 16.5294 5.84712 15.7495L15.2675 6.3291ZM10.25 19C10.25 18.5858 10.5858 18.25 11 18.25H19C19.4142 18.25 19.75 18.5858 19.75 19C19.75 19.4142 19.4142 19.75 19 19.75H11C10.5858 19.75 10.25 19.4142 10.25 19Z" fill="#313131"/>
</svg>
