<svg width="20" height="20" viewBox="0 0 20 20" fill="none" xmlns="http://www.w3.org/2000/svg">
<path fill-rule="evenodd" clip-rule="evenodd" d="M8.5 2C4.91015 2 2 4.91015 2 8.5C2 12.0899 4.91015 15 8.5 15C10.2921 15 11.9148 14.2748 13.0906 13.1018C14.2702 11.9251 15 10.2978 15 8.5C15 4.91015 12.0899 2 8.5 2ZM15.1701 13.7694C16.3159 12.3209 17 10.4903 17 8.5C17 3.80558 13.1944 0 8.5 0C3.80558 0 0 3.80558 0 8.5C0 13.1944 3.80558 17 8.5 17C10.4834 17 12.3081 16.3207 13.7542 15.182L18.294 19.7082C18.6851 20.0981 19.3182 20.0972 19.7082 19.706C20.0981 19.3149 20.0972 18.6818 19.706 18.2918L15.1701 13.7694Z" fill="#313131"/>
</svg>
