<svg width="11" height="14" viewBox="0 0 11 14" fill="none" xmlns="http://www.w3.org/2000/svg">
<path d="M5.4896 13.1264C4.76792 13.1264 4.0533 12.9842 3.38661 12.7079C2.71992 12.4316 2.11424 12.0265 1.60419 11.516C0.576537 10.4788 0 9.07784 0 7.61779C0 6.15774 0.576537 4.75675 1.60419 3.7196L5.18712 0.123887C5.26694 0.0445381 5.37492 0 5.48747 0C5.60002 0 5.708 0.0445381 5.78782 0.123887L9.38353 3.7196C10.1551 4.49001 10.6808 5.47209 10.8938 6.54145C11.1069 7.61081 10.9978 8.71935 10.5803 9.72666C10.1629 10.734 9.45592 11.5947 8.54892 12.2C7.64193 12.8052 6.57572 13.1276 5.48534 13.1264H5.4896ZM2.19637 10.911C2.62244 11.3713 3.13701 11.7408 3.70928 11.9975C4.28154 12.2541 4.89972 12.3927 5.52679 12.4047C6.15386 12.4168 6.77692 12.3022 7.35865 12.0678C7.94038 11.8334 8.46882 11.484 8.9123 11.0405C9.35579 10.597 9.70521 10.0686 9.93963 9.48684C10.174 8.90511 10.2886 8.28205 10.2766 7.65498C10.2645 7.02791 10.1259 6.40973 9.86927 5.83747C9.61261 5.2652 9.24308 4.75063 8.78283 4.32456L5.4896 1.03134L2.19637 4.32456C1.33 5.2017 0.84417 6.38492 0.84417 7.61779C0.84417 8.85066 1.33 10.0339 2.19637 10.911Z" fill="#5686DF"/>
<path d="M7.69047 5.55566C7.63297 5.55713 7.57578 5.54693 7.52233 5.5257C7.46888 5.50447 7.42028 5.47263 7.37946 5.43211L6.06729 4.11141C5.99749 4.02991 5.96102 3.92507 5.96516 3.81785C5.9693 3.71063 6.01375 3.60892 6.08963 3.53305C6.1655 3.45717 6.26721 3.41272 6.37443 3.40858C6.48165 3.40444 6.58649 3.44091 6.66799 3.51071L7.98869 4.83141C8.04877 4.891 8.08975 4.96713 8.10639 5.0501C8.12304 5.13307 8.1146 5.21911 8.08215 5.29726C8.0497 5.37542 7.99471 5.44214 7.92419 5.48891C7.85368 5.53569 7.77083 5.56041 7.68621 5.55992L7.69047 5.55566Z" fill="#5686DF"/>
</svg>
