<svg width="14" height="14" viewBox="0 0 14 14" fill="none" xmlns="http://www.w3.org/2000/svg">
<path d="M7 0.9C3.6175 0.9 0.9 3.6175 0.9 7C0.9 10.3828 3.64507 13.1 7 13.1C10.3552 13.1 13.1 10.3552 13.1 7C13.1 3.64507 10.3828 0.9 7 0.9ZM7 12.3545C4.02828 12.3545 1.64545 9.9451 1.64545 7C1.64545 4.05523 4.05523 1.64545 7 1.64545C9.94477 1.64545 12.3545 4.05523 12.3545 7C12.3545 9.9451 9.97172 12.3545 7 12.3545Z" fill="#5686DF" stroke="#EAF0FB" stroke-width="0.2"/>
<path d="M9.13813 4.33821L7.33189 6.14446C7.22253 6.1022 7.10118 6.08165 6.99975 6.08165C6.48089 6.08165 6.0543 6.50824 6.0543 7.02711C6.0543 7.54597 6.48089 7.97256 6.99975 7.97256C7.51862 7.97256 7.94521 7.54597 7.94521 7.02711C7.94521 6.90256 7.92444 6.79644 7.88299 6.69438L9.68864 4.88873C9.83679 4.74058 9.83679 4.51363 9.68864 4.36549C9.61715 4.29399 9.52016 4.25004 9.42244 4.24115C9.32405 4.23221 9.21768 4.25867 9.13813 4.33821ZM6.99975 7.19983C6.89134 7.19983 6.79975 7.10824 6.79975 6.99983C6.79975 6.89143 6.89134 6.79983 6.99975 6.79983C7.10816 6.79983 7.19975 6.89143 7.19975 6.99983C7.19975 7.10824 7.10816 7.19983 6.99975 7.19983Z" fill="#5686DF" stroke="#EAF0FB" stroke-width="0.2"/>
</svg>
