<svg width="18" height="20" viewBox="0 0 18 20" fill="none" xmlns="http://www.w3.org/2000/svg">
<path fill-rule="evenodd" clip-rule="evenodd" d="M8.17987 0.250075C8.22152 0.250114 8.2637 0.250153 8.30643 0.250153H9.69357C9.7363 0.250153 9.77848 0.250114 9.82013 0.250075C10.5245 0.249419 11.0767 0.248905 11.565 0.440969C11.9934 0.609471 12.3727 0.882837 12.668 1.236C13.0047 1.63855 13.1788 2.16255 13.4009 2.83097C13.4141 2.87049 13.4274 2.91052 13.4409 2.95105L13.5406 3.25015H17C17.4142 3.25015 17.75 3.58594 17.75 4.00015C17.75 4.41437 17.4142 4.75015 17 4.75015H15.75V14.2323C15.75 15.0451 15.75 15.7007 15.7066 16.2316C15.662 16.7783 15.5676 17.2584 15.3413 17.7026C14.9817 18.4082 14.4081 18.9819 13.7025 19.3414C13.2582 19.5678 12.7781 19.6621 12.2315 19.7068C11.7006 19.7502 11.045 19.7502 10.2321 19.7502H7.76788C6.95505 19.7502 6.29944 19.7502 5.76853 19.7068C5.2219 19.6621 4.74175 19.5678 4.29754 19.3414C3.59193 18.9819 3.01825 18.4082 2.65873 17.7026C2.43238 17.2584 2.33803 16.7783 2.29336 16.2316C2.24999 15.7007 2.24999 15.0451 2.25 14.2323L2.25 4.75015H1C0.585786 4.75015 0.25 4.41437 0.25 4.00015C0.25 3.58594 0.585786 3.25015 1 3.25015H4.45943L4.55913 2.95105C4.57264 2.91052 4.58594 2.87049 4.59908 2.83097C4.82119 2.16255 4.99532 1.63855 5.33195 1.236C5.62729 0.882838 6.00657 0.609471 6.435 0.440969C6.92335 0.248905 7.47552 0.249419 8.17987 0.250075ZM4.9827 4.75015C4.99433 4.75043 5.00594 4.75042 5.01751 4.75015H12.9825C12.9941 4.75042 13.0057 4.75043 13.0173 4.75015H14.25V14.2002C14.25 15.0526 14.2494 15.6468 14.2116 16.1095C14.1745 16.5634 14.1054 16.8241 14.0048 17.0216C13.7891 17.445 13.4448 17.7892 13.0215 18.0049C12.824 18.1056 12.5632 18.1747 12.1093 18.2118C11.6467 18.2496 11.0525 18.2502 10.2 18.2502H7.8C6.94755 18.2502 6.35331 18.2496 5.89068 18.2118C5.4368 18.1747 5.17604 18.1056 4.97852 18.0049C4.55516 17.7892 4.21095 17.445 3.99524 17.0216C3.8946 16.8241 3.82546 16.5634 3.78838 16.1095C3.75058 15.6468 3.75 15.0526 3.75 14.2002V4.75015H4.9827ZM11.9592 3.25015H6.0408C6.27769 2.54562 6.36214 2.34234 6.48262 2.19827C6.61687 2.03774 6.78927 1.91348 6.98401 1.83689C7.17249 1.76276 7.41306 1.75015 8.30643 1.75015H9.69357C10.5869 1.75015 10.8275 1.76276 11.016 1.83689C11.2107 1.91348 11.3831 2.03774 11.5174 2.19827C11.6379 2.34234 11.7223 2.54561 11.9592 3.25015ZM7 7.25015C7.41421 7.25015 7.75 7.58594 7.75 8.00015V15.0002C7.75 15.4144 7.41421 15.7502 7 15.7502C6.58579 15.7502 6.25 15.4144 6.25 15.0002V8.00015C6.25 7.58594 6.58579 7.25015 7 7.25015ZM11 7.25015C11.4142 7.25015 11.75 7.58594 11.75 8.00015V15.0002C11.75 15.4144 11.4142 15.7502 11 15.7502C10.5858 15.7502 10.25 15.4144 10.25 15.0002V8.00015C10.25 7.58594 10.5858 7.25015 11 7.25015Z" fill="#313131"/>
</svg>
