<svg width="8" height="10" viewBox="0 0 8 10" fill="none" xmlns="http://www.w3.org/2000/svg">
<path d="M3.81726 0.852819L3.81776 0.852756C3.86654 0.846826 3.91635 0.850468 3.9638 0.863654C4.01125 0.87684 4.0562 0.899547 4.09479 0.931338L4.09551 0.931932L4.0955 0.931934L6.7606 3.1555C6.7608 3.15566 6.76101 3.15583 6.76121 3.15599C6.79472 3.1836 6.82303 3.21774 6.84338 3.25721C6.86391 3.297 6.87567 3.34093 6.87712 3.38631C6.87857 3.4317 6.86963 3.47636 6.85149 3.51746C6.8334 3.55848 6.80683 3.5945 6.77452 3.62408C6.74224 3.65363 6.70469 3.67639 6.6645 3.69195C6.62432 3.70751 6.58164 3.71584 6.53877 3.71686C6.4959 3.71789 6.4529 3.71161 6.41205 3.69809C6.37119 3.68456 6.3326 3.6638 6.29886 3.63614L6.29786 3.63532L6.29786 3.63531L4.21112 1.8943V8.70045V8.70146H4.06112C4.06149 8.72413 4.05666 8.74664 4.0469 8.76768C4.03714 8.78872 4.02265 8.80787 4.00428 8.82402L3.81726 0.852819ZM3.81726 0.852819C3.75028 0.861193 3.68543 0.887654 3.6324 0.931412L3.6324 0.93141M3.81726 0.852819L3.6324 0.93141M3.6324 0.93141L3.63177 0.931934M3.6324 0.93141L3.63177 0.931934M3.63177 0.931934L0.966089 3.15597C0.898066 3.212 0.853094 3.29402 0.850152 3.38631C0.847196 3.47901 0.887248 3.5641 0.952758 3.62408C1.01755 3.68341 1.10274 3.71481 1.1885 3.71686C1.27426 3.71891 1.36071 3.69165 1.42842 3.63614L1.42842 3.63614M3.63177 0.931934L1.42842 3.63614M1.42842 3.63614L1.42941 3.63531M1.42842 3.63614L1.42941 3.63531M1.42941 3.63531L3.51615 1.8943M1.42941 3.63531L3.51615 1.8943M3.51615 8.70045C3.51563 8.74578 3.52544 8.79015 3.5443 8.8308L3.68037 8.76768L3.5443 8.8308C3.56331 8.87178 3.59081 8.90755 3.62398 8.9367C3.65711 8.96581 3.69545 8.98796 3.73629 9.00276L3.78584 8.86607L3.73629 9.00276C3.77714 9.01757 3.82037 9.025 3.86364 9.025C3.9069 9.025 3.95013 9.01757 3.99098 9.00276L3.93986 8.86174L3.51617 8.69901C3.51616 8.69949 3.51615 8.69997 3.51615 8.70045ZM3.51615 8.70045V1.8943M3.51615 8.70045V1.8943" fill="#9AB8E9" stroke="#5686DF" stroke-width="0.3"/>
</svg>
